<svg xmlns="http://www.w3.org/2000/svg" version="1.1" xmlns:xlink="http://www.w3.org/1999/xlink" xmlns:svgjs="http://svgjs.com/svgjs" width="512" height="512" x="0" y="0" viewBox="0 0 682.667 682.667" style="enable-background:new 0 0 512 512" xml:space="preserve"><g><defs><clipPath id="a" clipPathUnits="userSpaceOnUse"><path d="M0 512h512V0H0Z" fill="#ffffff" data-original="#000000"></path></clipPath></defs><g clip-path="url(#a)" transform="matrix(1.33333 0 0 -1.33333 0 682.667)"><path d="M0 0c-7.088 4.289-16.311 2.018-20.598-5.07-4.288-7.088-2.018-16.311 5.071-20.598 17.743-10.734 27.515-22.418 27.515-32.9 0-11.091-10.788-23.373-30.379-34.583-22.678-12.979-55.052-23.446-93.621-30.27-8.157-1.443-13.6-9.226-12.157-17.384 1.287-7.274 7.614-12.389 14.753-12.389.868 0 1.748.076 2.631.232 93.157 16.483 148.773 51.771 148.773 94.394C41.988-31.154 19.155-11.587 0 0" style="fill-opacity:1;fill-rule:nonzero;stroke:none" transform="translate(470.012 243.345)" fill="#ffffff" data-original="#000000"></path><path d="m0 0-40 30c-6.627 4.97-16.029 3.626-21-3-4.971-6.627-3.627-16.029 3-21l1.698-1.273c-44.521 3.303-85.316 11.272-117.947 23.237C-212.29 41.91-235 60.002-235 76.359c0 10.483 9.772 22.167 27.518 32.901 7.088 4.288 9.358 13.51 5.07 20.598-4.287 7.088-13.509 9.359-20.598 5.072-19.156-11.588-41.99-31.155-41.99-58.571 0-20.518 13.113-36.192 24.114-45.727 13.518-11.718 32.463-22.092 56.31-30.835 36.711-13.46 82.658-22.209 132.412-25.42L-58-30c-6.627-4.971-7.971-14.373-3-21a14.975 14.975 0 0 1 12.012-6.001c3.131 0 6.29.978 8.988 3.001L0-24A15 15 0 0 1 0 0" style="fill-opacity:1;fill-rule:nonzero;stroke:none" transform="translate(265 108.417)" fill="#ffffff" data-original="#000000"></path><path d="M0 0c0 11.191 9.104 20.296 20.295 20.296H241.44c11.191 0 20.295-9.105 20.295-20.296v-123.145c0-11.19-9.104-20.294-20.295-20.294H20.295C9.104-143.439 0-134.335 0-123.145Zm91.338 69.226a5.606 5.606 0 0 0 5.6 5.599h67.86a5.606 5.606 0 0 0 5.599-5.599v-18.93H91.338ZM20.295-173.439H241.44c27.733 0 50.295 22.562 50.295 50.294V0c0 27.733-22.562 50.296-50.295 50.296h-41.043v18.93c0 19.629-15.969 35.599-35.599 35.599h-67.86c-19.63 0-35.6-15.97-35.6-35.599v-18.93H35.615v19.529c0 8.284-6.716 15-15 15-8.284 0-15-6.716-15-15V48.11C-14.979 41.813-30 22.628-30 0v-123.145c0-27.732 22.563-50.294 50.295-50.294" style="fill-opacity:1;fill-rule:nonzero;stroke:none" transform="translate(125.132 355.759)" fill="#ffffff" data-original="#000000"></path><path d="M0 0c18.325 0 33.234-14.908 33.234-33.233 0-18.326-14.909-33.234-33.234-33.234-18.325 0-33.234 14.908-33.234 33.234C-33.234-14.908-18.325 0 0 0m0-96.467c34.867 0 63.234 28.366 63.234 63.234C63.234 1.634 34.867 30 0 30c-34.867 0-63.234-28.366-63.234-63.233 0-34.868 28.367-63.234 63.234-63.234" style="fill-opacity:1;fill-rule:nonzero;stroke:none" transform="translate(256 327.42)" fill="#ffffff" data-original="#000000"></path></g></g></svg>