<svg xmlns="http://www.w3.org/2000/svg" version="1.1" xmlns:xlink="http://www.w3.org/1999/xlink" xmlns:svgjs="http://svgjs.com/svgjs" width="512" height="512" x="0" y="0" viewBox="0 0 32 32" style="enable-background:new 0 0 512 512" xml:space="preserve" class=""><g><path d="M27 9h-2.38l-1.17-2.34A3 3 0 0 0 20.76 5h-9.52a3 3 0 0 0-2.69 1.66L7.38 9H5a3 3 0 0 0-3 3v12a3 3 0 0 0 3 3h22a3 3 0 0 0 3-3V12a3 3 0 0 0-3-3zm1 15a1 1 0 0 1-1 1H5a1 1 0 0 1-1-1V12a1 1 0 0 1 1-1h3a1 1 0 0 0 .89-.55l1.45-2.9a1 1 0 0 1 .9-.55h9.52a1 1 0 0 1 .9.55l1.45 2.9A1 1 0 0 0 24 11h3a1 1 0 0 1 1 1z" fill="#ffffff" data-original="#000000" class=""></path><path d="M16 10a7 7 0 1 0 7 7 7 7 0 0 0-7-7zm0 12a5 5 0 1 1 5-5 5 5 0 0 1-5 5zM24 12h2v2h-2z" fill="#ffffff" data-original="#000000" class=""></path><path d="M12 17h2a2 2 0 0 1 2-2v-2a4 4 0 0 0-4 4z" fill="#ffffff" data-original="#000000" class=""></path></g></svg>