<svg xmlns="http://www.w3.org/2000/svg" version="1.1" xmlns:xlink="http://www.w3.org/1999/xlink" xmlns:svgjs="http://svgjs.com/svgjs" width="512" height="512" x="0" y="0" viewBox="0 0 24 24" style="enable-background:new 0 0 512 512" xml:space="preserve" class=""><g><path d="M20 10.5a10.02 10.02 0 0 0-2 .272V9a3 3 0 0 0-3-3h-2.272A9.929 9.929 0 0 0 13 4a4 4 0 0 0-8 0 9.929 9.929 0 0 0 .272 2H3a3 3 0 0 0-3 3v15h6.536L6.3 23a9.8 9.8 0 0 1-.3-2 3 3 0 0 1 6 0 9.8 9.8 0 0 1-.3 2l-.237 1H18v-5.772a10.02 10.02 0 0 0 2 .272 4 4 0 0 0 0-8Z" fill="#ffffff" data-original="#000000" class=""></path></g></svg>